<?xml version="1.0" encoding="iso-8859-1"?>
<!-- Uploaded to: SVG Repo, www.svgrepo.com, Generator: SVG Repo Mixer Tools -->
<svg fill="#000000" version="1.1" id="Layer_1" xmlns="http://www.w3.org/2000/svg" xmlns:xlink="http://www.w3.org/1999/xlink" 
	 viewBox="0 0 512 512" xml:space="preserve">
<g>
	<g>
		<path d="M369.528,0H60.554v512h233.977v-16.554H77.109V16.554h280.712v77.07h77.07v401.821H322.065V512h129.381V81.919L369.528,0z
			 M374.377,77.071v-48.81l48.809,48.81H374.377z"/>
	</g>
</g>
<g>
	<g>
		<path d="M262.243,129.457L256,122.291l-6.242,7.166c-0.748,0.86-18.539,21.394-35.865,50.774l14.26,8.409
			c10.455-17.729,21.268-32.297,27.838-40.648c18.251,23.259,69.384,94.753,55.421,149.411
			c-5.571,21.81-21.406,38.862-47.135,50.803v-28.222l25.1-25.099l-11.705-11.706l-13.395,13.395v-31.638l25.1-25.1l-11.705-11.706
			l-13.395,13.395v-35.067h-16.554v35.067l-13.395-13.396l-11.705,11.706l25.101,25.1v31.638l-13.395-13.395l-11.705,11.706
			l25.101,25.1v28.2c-22.592-10.486-37.594-24.887-44.625-42.942c-12.603-32.372,1.843-72.526,16.182-100.511l-14.733-7.549
			c-23.108,45.099-28.786,83.477-16.876,114.066c9.922,25.483,31.943,44.697,65.452,57.108l2.875,1.065l2.875-1.065
			c37.754-13.983,60.83-36.487,68.585-66.884C346.409,227.195,265.688,133.412,262.243,129.457z"/>
	</g>
</g>
<g>
	<g>
		<rect x="101.865" y="38.534" width="60.554" height="16.554"/>
	</g>
</g>
<g>
	<g>
		<rect x="178.932" y="38.534" width="27.524" height="16.554"/>
	</g>
</g>
<g>
	<g>
		<rect x="101.865" y="71.565" width="132.115" height="16.554"/>
	</g>
</g>
<g>
	<g>
		<rect x="101.865" y="456.913" width="27.525" height="16.554"/>
	</g>
</g>
<g>
	<g>
		<rect x="129.39" y="434.896" width="27.524" height="16.554"/>
	</g>
</g>
</svg>